<svg width="760" height="190" viewBox="0 0 760 190" fill="none" xmlns="http://www.w3.org/2000/svg">
<path d="M570 95C570 42.5329 527.467 0 475 0C422.533 0 380 42.5329 380 95C380 147.467 422.533 190 475 190C527.467 190 570 147.467 570 95Z" fill="#FF5770"/>
<path d="M760 0V190H570C570 139.609 590.018 91.2816 625.65 55.6497C661.282 20.0178 709.609 0 760 0V0Z" fill="#384BD5"/>
<path d="M190 0H380V190C329.609 190 281.282 169.982 245.65 134.35C210.018 98.7184 190 50.3911 190 0Z" fill="#FCB201"/>
<path d="M0 0H190V190C139.609 190 91.2816 169.982 55.6497 134.35C20.0178 98.7184 0 50.3911 0 0Z" fill="#FEBBBC"/>
</svg>
